<svg xmlns="http://www.w3.org/2000/svg" width="1200" height="112" viewBox="0 0 1200 112" role="img" aria-label="Gozargah key stats">
  <defs>
    <linearGradient id="brandGrad" x1="0" y1="0" x2="1" y2="0">
      <stop offset="0%" stop-color="#00D9FF"/>
      <stop offset="34%" stop-color="#2563EB"/>
      <stop offset="68%" stop-color="#7C3AED"/>
      <stop offset="100%" stop-color="#D946EF"/>
    </linearGradient>
    <linearGradient id="brandGradV" x1="0" y1="0" x2="0" y2="1">
      <stop offset="0%" stop-color="#00D9FF"/>
      <stop offset="50%" stop-color="#7C3AED"/>
      <stop offset="100%" stop-color="#D946EF"/>
    </linearGradient>
    <linearGradient id="textGrad" x1="0" y1="0" x2="0" y2="1">
      <stop offset="0%" stop-color="#FFFFFF"/>
      <stop offset="100%" stop-color="#C9EFFF"/>
    </linearGradient>
    <radialGradient id="gCyan" cx="50%" cy="50%" r="50%">
      <stop offset="0%" stop-color="#00D9FF" stop-opacity="0.3"/>
      <stop offset="100%" stop-color="#00D9FF" stop-opacity="0"/>
    </radialGradient>
    <radialGradient id="gBlue" cx="50%" cy="50%" r="50%">
      <stop offset="0%" stop-color="#2563EB" stop-opacity="0.26"/>
      <stop offset="100%" stop-color="#2563EB" stop-opacity="0"/>
    </radialGradient>
    <radialGradient id="gMag" cx="50%" cy="50%" r="50%">
      <stop offset="0%" stop-color="#D946EF" stop-opacity="0.22"/>
      <stop offset="100%" stop-color="#D946EF" stop-opacity="0"/>
    </radialGradient>
    <filter id="blurL" x="-60%" y="-60%" width="220%" height="220%">
      <feGaussianBlur stdDeviation="14"/>
    </filter>
    <filter id="blurS" x="-60%" y="-60%" width="220%" height="220%">
      <feGaussianBlur stdDeviation="3.5"/>
    </filter>
    <filter id="softGlow" x="-40%" y="-40%" width="180%" height="180%">
      <feDropShadow dx="0" dy="0" stdDeviation="10" flood-color="#38BDF8"
                    flood-opacity="0.38"/>
    </filter>
    
  </defs>
  <rect x="1" y="1" width="1198" height="110" rx="18" fill="#0A0F24" fill-opacity="0.92" stroke="#223055" stroke-width="1.2"/>
  <rect x="1" y="1" width="1198" height="110" rx="18" fill="url(#gBlue)" opacity="0.35"/>
    <path transform="translate(1042.69,60.00) scale(0.022461,-0.022461)" d="M530.0 0.0H236.0V197.0Q236.0 438.0 217.0 630.0Q198.0 822.0 156.0 982.0Q114.0 1142.0 45.0 1284.0L320.0 1384.0Q434.0 1130.0 482.0 841.5Q530.0 553.0 530.0 194.0Z" fill="url(#brandGrad)" />
  <path transform="translate(998.48,86.00) scale(0.007324,-0.007324)" d="M1191.0 138.0Q1191.0 -178.0 1057.5 -337.0Q924.0 -496.0 648.0 -496.0Q362.0 -496.0 227.0 -345.0Q92.0 -194.0 92.0 62.0Q92.0 172.0 116.0 289.5Q140.0 407.0 182.0 517.0L377.0 440.0Q346.0 349.0 323.0 248.5Q300.0 148.0 300.0 58.0Q300.0 -98.0 382.5 -184.0Q465.0 -270.0 648.0 -270.0Q824.0 -270.0 901.0 -173.0Q978.0 -76.0 978.0 120.0V1388.0H1191.0Z" fill="#8B9BC0" />
  <path transform="translate(1008.27,86.00) scale(0.007324,-0.007324)" d="M447.0 773.0Q561.0 773.0 647.0 705.0Q733.0 637.0 782.5 515.0Q832.0 393.0 838.0 229.0H939.0V0.0H820.0Q791.0 -131.0 716.5 -239.0Q642.0 -347.0 509.0 -424.0Q376.0 -501.0 172.0 -540.0L95.0 -334.0Q305.0 -293.0 442.0 -209.5Q579.0 -126.0 616.0 0.0H486.0Q290.0 0.0 191.0 80.0Q92.0 160.0 92.0 329.0Q92.0 403.0 114.5 481.0Q137.0 559.0 182.0 625.0Q227.0 691.0 293.5 732.0Q360.0 773.0 447.0 773.0ZM480.0 229.0H635.0Q625.0 374.0 580.5 460.5Q536.0 547.0 445.0 547.0Q388.0 547.0 355.5 511.0Q323.0 475.0 310.0 426.5Q297.0 378.0 297.0 338.0Q297.0 275.0 343.0 252.0Q389.0 229.0 480.0 229.0Z" fill="#8B9BC0" />
  <path transform="translate(1015.00,86.00) scale(0.007324,-0.007324)" d="M877.0 0.0H824.0Q632.0 0.0 517.5 35.5Q403.0 71.0 344.0 142.0Q287.0 72.0 212.5 36.0Q138.0 0.0 21.0 0.0H-20.0L-19.0 229.0H21.0Q152.0 229.0 196.5 278.5Q241.0 328.0 241.0 436.0Q241.0 489.0 237.5 536.0Q234.0 583.0 231.0 633.0L434.0 657.0L451.0 401.0Q456.0 346.0 474.0 306.0Q492.0 266.0 529.0 263.0Q689.0 532.0 860.0 691.0Q1031.0 850.0 1224.0 850.0Q1344.0 850.0 1436.0 799.0Q1528.0 748.0 1580.5 659.0Q1633.0 570.0 1633.0 456.0Q1633.0 401.0 1618.0 344.0Q1603.0 287.0 1572.0 243.0Q1598.0 237.0 1638.5 233.0Q1679.0 229.0 1751.0 229.0H1781.0V0.0H1752.0Q1628.0 0.0 1546.0 28.5Q1464.0 57.0 1405.0 102.0Q1314.0 56.0 1178.5 28.0Q1043.0 0.0 877.0 0.0ZM1232.0 624.0Q1114.0 624.0 989.5 516.0Q865.0 408.0 749.0 229.0H880.0Q1129.0 229.0 1274.0 275.5Q1419.0 322.0 1419.0 442.0Q1419.0 522.0 1367.0 573.0Q1315.0 624.0 1232.0 624.0Z" fill="#8B9BC0" />
  <path transform="translate(1027.90,86.00) scale(0.007324,-0.007324)" d="M1303.0 601.0V390.0Q1254.0 385.0 1195.5 366.0Q1137.0 347.0 1081.0 321.0Q1089.0 263.0 1165.5 246.0Q1242.0 229.0 1361.0 229.0H1416.0V0.0H1357.0Q1162.0 0.0 1056.0 51.5Q950.0 103.0 921.0 240.0Q729.0 136.0 544.0 68.0Q359.0 0.0 147.0 0.0H-20.0V229.0H150.0Q295.0 229.0 413.0 260.0Q531.0 291.0 655.0 347.5Q779.0 404.0 940.0 480.0Q842.0 516.0 751.5 552.5Q661.0 589.0 595.0 613.0Q529.0 637.0 503.0 637.0Q445.0 637.0 399.5 602.0Q354.0 567.0 320.0 523.0L282.0 475.0L98.0 565.0L126.0 610.0Q194.0 721.0 286.5 791.0Q379.0 861.0 504.0 861.0Q556.0 861.0 627.5 835.5Q699.0 810.0 782.5 772.0Q866.0 734.0 955.5 695.5Q1045.0 657.0 1133.5 630.0Q1222.0 603.0 1303.0 601.0Z" fill="#8B9BC0" />
  <path transform="translate(1038.12,86.00) scale(0.007324,-0.007324)" d="M680.0 -23.0Q578.0 -23.0 491.0 21.0Q404.0 65.0 315.0 143.0Q254.0 78.0 194.5 39.0Q135.0 0.0 24.0 0.0H-20.0V229.0H19.0Q78.0 229.0 121.5 267.5Q165.0 306.0 201.0 366.5Q237.0 427.0 274.5 495.0Q312.0 563.0 359.0 623.5Q406.0 684.0 470.5 722.5Q535.0 761.0 626.0 761.0Q744.0 761.0 830.5 705.0Q917.0 649.0 964.5 555.5Q1012.0 462.0 1012.0 350.0Q1012.0 181.0 927.0 79.0Q842.0 -23.0 680.0 -23.0ZM632.0 541.0Q586.0 541.0 548.5 510.0Q511.0 479.0 481.5 432.5Q452.0 386.0 430.0 339.0Q461.0 308.0 490.0 285.5Q519.0 263.0 546.0 246.0Q621.0 201.0 680.0 201.0Q745.0 201.0 775.5 239.0Q806.0 277.0 806.0 340.0Q806.0 426.0 760.0 483.5Q714.0 541.0 632.0 541.0Z" fill="#8B9BC0" />
  <path transform="translate(1050.10,86.00) scale(0.007324,-0.007324)" d="M648.0 -496.0Q362.0 -496.0 227.0 -345.0Q92.0 -194.0 92.0 62.0Q92.0 172.0 116.0 289.5Q140.0 407.0 182.0 517.0L377.0 440.0Q346.0 349.0 323.0 248.5Q300.0 148.0 300.0 58.0Q300.0 -99.0 382.5 -184.5Q465.0 -270.0 648.0 -270.0Q823.0 -270.0 900.5 -172.5Q978.0 -75.0 978.0 120.0V1388.0H1191.0V453.0Q1191.0 347.0 1227.0 288.0Q1263.0 229.0 1373.0 229.0H1403.0V0.0H1375.0Q1302.0 0.0 1264.0 15.0Q1226.0 30.0 1187.0 64.0Q1179.0 -208.0 1046.5 -352.0Q914.0 -496.0 648.0 -496.0Z" fill="#8B9BC0" />
  <path transform="translate(1060.22,86.00) scale(0.007324,-0.007324)" d="M274.0 950.0Q367.0 890.0 456.5 826.5Q546.0 763.0 618.5 693.0Q691.0 623.0 734.0 544.0Q777.0 465.0 777.0 372.0Q777.0 164.0 636.0 82.0Q495.0 0.0 224.0 0.0H-20.0V229.0H223.0Q402.0 229.0 484.5 258.5Q567.0 288.0 567.0 376.0Q567.0 427.0 519.5 482.0Q472.0 537.0 398.0 592.5Q324.0 648.0 243.5 702.0Q163.0 756.0 97.0 807.0Q60.0 834.0 41.0 875.5Q22.0 917.0 22.0 960.0Q22.0 1007.0 46.5 1049.0Q71.0 1091.0 122.0 1112.0L864.0 1414.0V1189.0Z" fill="#8B9BC0" />
  <path transform="translate(1070.86,86.00) scale(0.007324,-0.007324)" d="M469.0 558.0Q404.0 499.0 364.0 438.0Q324.0 377.0 319.0 292.0Q386.0 287.0 415.0 250.5Q444.0 214.0 444.0 149.0Q444.0 80.0 406.5 40.0Q369.0 0.0 298.0 0.0Q211.0 0.0 170.5 48.5Q130.0 97.0 130.0 179.0Q130.0 325.0 196.5 438.5Q263.0 552.0 371.0 636.0Z" fill="#8B9BC0" />
  <path transform="translate(1075.15,86.00) scale(0.007324,-0.007324)" d="M648.0 -496.0Q362.0 -496.0 227.0 -345.0Q92.0 -194.0 92.0 62.0Q92.0 172.0 116.0 289.5Q140.0 407.0 182.0 517.0L377.0 440.0Q346.0 349.0 323.0 248.5Q300.0 148.0 300.0 58.0Q300.0 -99.0 382.5 -184.5Q465.0 -270.0 648.0 -270.0Q823.0 -270.0 900.5 -172.5Q978.0 -75.0 978.0 120.0V1388.0H1191.0V453.0Q1191.0 347.0 1227.0 288.0Q1263.0 229.0 1373.0 229.0H1403.0V0.0H1375.0Q1302.0 0.0 1264.0 15.0Q1226.0 30.0 1187.0 64.0Q1179.0 -208.0 1046.5 -352.0Q914.0 -496.0 648.0 -496.0Z" fill="#8B9BC0" />
  <path transform="translate(1085.28,86.00) scale(0.007324,-0.007324)" d="M-20.0 229.0H265.0Q354.0 229.0 386.5 282.0Q419.0 335.0 419.0 417.0Q419.0 483.0 405.0 560.5Q391.0 638.0 376.0 714.0L588.0 768.0Q606.0 681.0 616.5 598.0Q627.0 515.0 627.0 438.0Q627.0 312.0 593.0 213.0Q559.0 114.0 479.5 57.0Q400.0 0.0 265.0 0.0H-20.0ZM410.0 -145.0 564.0 -298.0 410.0 -453.0 258.0 -298.0ZM76.0 -145.0 230.0 -298.0 76.0 -453.0 -77.0 -298.0Z" fill="#8B9BC0" />
  <path transform="translate(1090.55,86.00) scale(0.007324,-0.007324)" d="M146.0 1388.0H359.0V450.0Q359.0 325.0 401.5 277.0Q444.0 229.0 546.0 229.0H571.0V0.0H546.0Q341.0 0.0 243.5 108.0Q146.0 216.0 146.0 440.0Z" fill="#8B9BC0" />
  <path transform="translate(1094.58,86.00) scale(0.007324,-0.007324)" d="M436.0 1559.0 596.0 1399.0 436.0 1239.0 276.0 1399.0ZM360.0 229.0Q461.0 229.0 525.5 239.5Q590.0 250.0 622.0 286.0Q654.0 322.0 654.0 398.0Q565.0 375.0 469.0 375.0Q297.0 375.0 203.5 446.5Q110.0 518.0 110.0 669.0Q110.0 770.0 152.0 869.0Q194.0 968.0 273.0 1034.0Q352.0 1100.0 463.0 1100.0Q567.0 1100.0 641.0 1047.5Q715.0 995.0 763.0 907.0Q811.0 819.0 833.5 709.0Q856.0 599.0 856.0 483.0Q856.0 280.0 804.0 176.0Q752.0 72.0 640.5 36.0Q529.0 0.0 348.0 0.0H-20.0V229.0ZM475.0 579.0Q518.0 579.0 560.5 585.5Q603.0 592.0 645.0 603.0Q637.0 664.0 616.0 727.5Q595.0 791.0 558.0 834.5Q521.0 878.0 461.0 878.0Q408.0 878.0 374.5 845.5Q341.0 813.0 325.0 767.0Q309.0 721.0 309.0 678.0Q309.0 616.0 354.0 597.5Q399.0 579.0 475.0 579.0Z" fill="#8B9BC0" />
  <path transform="translate(1021.83,102.00) scale(0.004639,-0.004639)" d="M1309.0 768.0V688.0Q1309.0 468.0 1233.5 309.5Q1158.0 151.0 1022.5 65.5Q887.0 -20.0 707.0 -20.0Q529.0 -20.0 392.5 65.5Q256.0 151.0 178.5 309.5Q101.0 468.0 101.0 688.0V768.0Q101.0 988.0 178.0 1146.5Q255.0 1305.0 391.0 1390.5Q527.0 1476.0 705.0 1476.0Q885.0 1476.0 1021.0 1390.5Q1157.0 1305.0 1233.0 1146.5Q1309.0 988.0 1309.0 768.0ZM1058.0 688.0V770.0Q1058.0 1013.0 965.0 1142.0Q872.0 1271.0 705.0 1271.0Q540.0 1271.0 446.5 1142.0Q353.0 1013.0 353.0 770.0V688.0Q353.0 444.0 447.5 314.0Q542.0 184.0 707.0 184.0Q875.0 184.0 966.5 314.0Q1058.0 444.0 1058.0 688.0Z" fill="#5A6A8F" />
  <path transform="translate(1030.78,102.00) scale(0.004639,-0.004639)" d="M1303.0 1456.0V0.0H1052.0L399.0 1043.0V0.0H148.0V1456.0H399.0L1054.0 411.0V1456.0Z" fill="#5A6A8F" />
  <path transform="translate(1039.92,102.00) scale(0.004639,-0.004639)" d="M1101.0 199.0V0.0H148.0V1456.0H1096.0V1256.0H399.0V848.0H1000.0V652.0H399.0V199.0Z" fill="#5A6A8F" />
  <path transform="translate(1052.55,102.00) scale(0.004639,-0.004639)" d="M993.0 819.0V620.0H399.0V0.0H148.0V1456.0H1076.0V1256.0H399.0V819.0Z" fill="#5A6A8F" />
  <path transform="translate(1060.18,102.00) scale(0.004639,-0.004639)" d="M416.0 1456.0V0.0H165.0V1456.0Z" fill="#5A6A8F" />
  <path transform="translate(1065.27,102.00) scale(0.004639,-0.004639)" d="M1060.0 199.0V0.0H148.0V1456.0H399.0V199.0Z" fill="#5A6A8F" />
  <path transform="translate(1072.80,102.00) scale(0.004639,-0.004639)" d="M1101.0 199.0V0.0H148.0V1456.0H1096.0V1256.0H399.0V848.0H1000.0V652.0H399.0V199.0Z" fill="#5A6A8F" />
  <line x1="900" y1="28" x2="900" y2="76" stroke="#33477E" stroke-width="1" opacity="0.6"/>
  <path transform="translate(739.62,60.00) scale(0.022461,-0.022461)" d="M107.0 478.0Q107.0 577.0 154.5 657.5Q202.0 738.0 283.0 785.5Q364.0 833.0 462.0 833.0Q561.0 833.0 641.5 785.5Q722.0 738.0 769.5 657.5Q817.0 577.0 817.0 478.0Q817.0 380.0 769.5 299.0Q722.0 218.0 641.5 170.5Q561.0 123.0 462.0 123.0Q364.0 123.0 283.0 170.5Q202.0 218.0 154.5 299.0Q107.0 380.0 107.0 478.0ZM338.0 478.0Q338.0 426.0 374.0 394.5Q410.0 363.0 462.0 363.0Q515.0 363.0 550.5 394.5Q586.0 426.0 586.0 478.0Q586.0 531.0 550.5 562.0Q515.0 593.0 462.0 593.0Q410.0 593.0 374.0 562.0Q338.0 531.0 338.0 478.0Z" fill="url(#brandGrad)" />
  <path transform="translate(704.37,86.00) scale(0.007324,-0.007324)" d="M1141.0 425.0Q1152.0 349.0 1196.0 289.0Q1240.0 229.0 1302.0 229.0H1329.0V0.0H1302.0Q1240.0 0.0 1179.0 28.0Q1118.0 56.0 1080.0 108.0Q1042.0 47.0 981.0 15.5Q920.0 -16.0 825.0 -16.0Q768.0 -16.0 707.0 3.0Q646.0 22.0 589.0 46.5Q532.0 71.0 485.0 90.0Q438.0 109.0 408.0 109.0Q341.0 109.0 321.0 18.0Q301.0 -73.0 301.0 -266.0Q301.0 -380.0 306.0 -471.0Q311.0 -562.0 317.0 -637.0H100.0Q95.0 -538.0 91.5 -448.5Q88.0 -359.0 88.0 -271.0Q88.0 -110.0 103.5 20.0Q119.0 150.0 175.5 234.0Q232.0 318.0 355.0 340.0Q391.0 462.0 446.0 557.0Q501.0 652.0 578.5 706.5Q656.0 761.0 761.0 761.0Q909.0 761.0 1013.5 668.0Q1118.0 575.0 1141.0 425.0ZM942.0 335.0Q942.0 419.0 892.5 479.5Q843.0 540.0 765.0 540.0Q711.0 540.0 672.0 505.0Q633.0 470.0 606.0 416.0Q579.0 362.0 561.0 303.0Q651.0 263.0 720.0 236.5Q789.0 210.0 828.0 210.0Q887.0 210.0 914.5 245.5Q942.0 281.0 942.0 335.0Z" fill="#8B9BC0" />
  <path transform="translate(713.96,86.00) scale(0.007324,-0.007324)" d="M195.0 0.0H-22.0V229.0H195.0Q284.0 229.0 316.5 282.0Q349.0 335.0 349.0 417.0Q349.0 483.0 335.0 560.5Q321.0 638.0 306.0 714.0L518.0 768.0Q536.0 681.0 546.5 598.0Q557.0 515.0 557.0 438.0Q557.0 312.0 523.0 213.0Q489.0 114.0 409.5 57.0Q330.0 0.0 195.0 0.0ZM340.0 -145.0 494.0 -298.0 340.0 -453.0 188.0 -298.0ZM6.0 -145.0 160.0 -298.0 6.0 -453.0 -147.0 -298.0Z" fill="#8B9BC0" />
  <path transform="translate(718.71,86.00) scale(0.007324,-0.007324)" d="M146.0 1388.0H359.0V450.0Q359.0 325.0 401.5 277.0Q444.0 229.0 546.0 229.0H571.0V0.0H546.0Q341.0 0.0 243.5 108.0Q146.0 216.0 146.0 440.0Z" fill="#8B9BC0" />
  <path transform="translate(722.75,86.00) scale(0.007324,-0.007324)" d="M471.0 1137.0 625.0 984.0 471.0 829.0 319.0 984.0ZM137.0 1137.0 291.0 984.0 137.0 829.0 -16.0 984.0ZM-20.0 229.0H170.0Q289.0 229.0 338.0 277.5Q387.0 326.0 387.0 436.0Q387.0 489.0 384.5 537.5Q382.0 586.0 378.0 633.0L581.0 658.0L599.0 401.0Q609.0 229.0 783.0 229.0H804.0V0.0H781.0Q675.0 0.0 606.0 38.0Q537.0 76.0 494.0 143.0Q437.0 72.0 351.0 36.0Q265.0 0.0 170.0 0.0H-20.0Z" fill="#8B9BC0" />
  <path transform="translate(728.49,86.00) scale(0.007324,-0.007324)" d="M141.0 0.0H-20.0V229.0H141.0Q230.0 229.0 262.5 282.0Q295.0 335.0 295.0 417.0Q295.0 483.0 281.0 560.5Q267.0 638.0 252.0 714.0L464.0 768.0Q482.0 681.0 492.5 598.0Q503.0 515.0 503.0 438.0Q503.0 312.0 469.0 213.0Q435.0 114.0 355.5 57.0Q276.0 0.0 141.0 0.0ZM261.0 1234.0 421.0 1074.0 261.0 914.0 101.0 1074.0Z" fill="#8B9BC0" />
  <path transform="translate(732.85,86.00) scale(0.007324,-0.007324)" d="M359.0 1388.0V1.0H146.0V1388.0Z" fill="#8B9BC0" />
  <path transform="translate(735.52,86.00) scale(0.007324,-0.007324)" d="M47.0 -541.0 -30.0 -335.0Q202.0 -285.0 313.0 -168.0Q424.0 -51.0 424.0 139.0Q424.0 227.0 401.0 329.0Q378.0 431.0 345.0 529.0L556.0 599.0Q594.0 494.0 613.0 382.5Q632.0 271.0 632.0 167.0Q632.0 -111.0 482.5 -298.0Q333.0 -485.0 47.0 -541.0Z" fill="#8B9BC0" />
  <path transform="translate(744.72,86.00) scale(0.007324,-0.007324)" d="M700.0 -515.0Q482.0 -515.0 348.5 -433.5Q215.0 -352.0 154.0 -215.0Q93.0 -78.0 93.0 86.0Q93.0 168.0 107.5 265.0Q122.0 362.0 162.0 475.0L357.0 403.0Q328.0 309.0 315.5 228.0Q303.0 147.0 303.0 84.0Q303.0 -19.0 339.5 -103.5Q376.0 -188.0 462.5 -238.0Q549.0 -288.0 700.0 -288.0Q854.0 -288.0 956.0 -253.0Q1058.0 -218.0 1109.5 -171.5Q1161.0 -125.0 1161.0 -91.0Q1161.0 -48.0 1123.0 -24.5Q1085.0 -1.0 1001.0 -1.0H849.0Q819.0 -1.0 809.5 18.5Q800.0 38.0 791.0 69.0L757.0 190.0Q753.0 206.0 757.0 217.0Q761.0 228.0 784.0 228.0H1360.0V-1.0H1341.0Q1352.0 -26.0 1355.0 -46.0Q1358.0 -66.0 1358.0 -89.0Q1358.0 -192.0 1284.0 -290.0Q1210.0 -388.0 1064.0 -451.5Q918.0 -515.0 700.0 -515.0Z" fill="#8B9BC0" />
  <path transform="translate(754.53,86.00) scale(0.007324,-0.007324)" d="M71.0 1205.0V1333.0L854.0 1651.0V1523.0ZM274.0 950.0Q396.0 870.0 492.5 798.5Q589.0 727.0 660.0 645.5Q731.0 564.0 776.0 455.0Q826.0 335.0 878.0 282.0Q930.0 229.0 1038.0 229.0H1066.0V0.0H1038.0Q923.0 0.0 843.5 40.0Q764.0 80.0 705.0 169.0Q659.0 110.0 600.0 72.5Q541.0 35.0 451.5 17.5Q362.0 0.0 224.0 0.0H-20.0V229.0H223.0Q402.0 229.0 484.5 258.5Q567.0 288.0 567.0 376.0Q567.0 427.0 519.5 482.0Q472.0 537.0 398.0 592.5Q324.0 648.0 243.5 702.0Q163.0 756.0 97.0 807.0Q60.0 835.0 41.0 877.0Q22.0 919.0 22.0 962.0Q22.0 1010.0 46.5 1050.5Q71.0 1091.0 122.0 1112.0L864.0 1414.0V1189.0Z" fill="#8B9BC0" />
  <path transform="translate(762.19,86.00) scale(0.007324,-0.007324)" d="M471.0 1137.0 625.0 984.0 471.0 829.0 319.0 984.0ZM137.0 1137.0 291.0 984.0 137.0 829.0 -16.0 984.0ZM-20.0 229.0H170.0Q289.0 229.0 338.0 277.5Q387.0 326.0 387.0 436.0Q387.0 489.0 384.5 537.5Q382.0 586.0 378.0 633.0L581.0 658.0L599.0 401.0Q609.0 229.0 783.0 229.0H804.0V0.0H781.0Q675.0 0.0 606.0 38.0Q537.0 76.0 494.0 143.0Q437.0 72.0 351.0 36.0Q265.0 0.0 170.0 0.0H-20.0Z" fill="#8B9BC0" />
  <path transform="translate(767.93,86.00) scale(0.007324,-0.007324)" d="M1201.0 0.0Q1107.0 0.0 1047.0 38.5Q987.0 77.0 948.0 142.0Q894.0 73.0 827.0 36.5Q760.0 0.0 677.0 0.0Q568.0 0.0 503.0 37.0Q438.0 74.0 398.0 141.0Q347.0 74.0 273.0 37.0Q199.0 0.0 72.0 0.0H-20.0V229.0H74.0Q194.0 229.0 247.5 267.5Q301.0 306.0 301.0 422.0Q301.0 447.0 298.0 497.0Q295.0 547.0 290.0 607.0L494.0 632.0L512.0 396.0Q517.0 320.0 558.0 274.5Q599.0 229.0 679.0 229.0Q775.0 229.0 808.5 276.0Q842.0 323.0 842.0 422.0Q842.0 446.0 839.0 496.5Q836.0 547.0 831.0 607.0L1035.0 632.0L1053.0 396.0Q1058.0 323.0 1090.5 276.0Q1123.0 229.0 1199.0 229.0Q1268.0 229.0 1298.5 278.5Q1329.0 328.0 1329.0 422.0Q1329.0 458.0 1326.0 509.5Q1323.0 561.0 1318.0 624.0L1522.0 649.0L1540.0 396.0Q1550.0 229.0 1719.0 229.0H1749.0V0.0H1721.0Q1515.0 0.0 1449.0 139.0Q1407.0 75.0 1350.0 37.5Q1293.0 0.0 1201.0 0.0Z" fill="#8B9BC0" />
  <path transform="translate(780.60,86.00) scale(0.007324,-0.007324)" d="M161.0 0.0H-21.0V229.0H161.0Q250.0 229.0 282.5 282.0Q315.0 335.0 315.0 417.0Q315.0 483.0 301.0 560.5Q287.0 638.0 272.0 714.0L484.0 768.0Q502.0 681.0 512.5 598.0Q523.0 515.0 523.0 438.0Q523.0 312.0 489.0 213.0Q455.0 114.0 375.5 57.0Q296.0 0.0 161.0 0.0ZM185.0 -138.0 345.0 -298.0 185.0 -458.0 25.0 -298.0Z" fill="#8B9BC0" />
  <path transform="translate(785.10,86.00) scale(0.007324,-0.007324)" d="M359.0 1388.0V1.0H146.0V1388.0Z" fill="#8B9BC0" />
  <path transform="translate(788.80,86.00) scale(0.007324,-0.007324)" d="M841.0 193.0Q841.0 -123.0 667.0 -300.5Q493.0 -478.0 172.0 -540.0L95.0 -334.0Q314.0 -292.0 451.5 -202.5Q589.0 -113.0 619.0 20.0Q586.0 10.0 546.5 3.5Q507.0 -3.0 475.0 -3.0Q291.0 -3.0 191.5 77.0Q92.0 157.0 92.0 329.0Q92.0 406.0 115.0 484.5Q138.0 563.0 183.5 628.5Q229.0 694.0 295.5 734.5Q362.0 775.0 448.0 775.0Q549.0 775.0 623.0 726.0Q697.0 677.0 745.0 593.5Q793.0 510.0 817.0 406.5Q841.0 303.0 841.0 193.0ZM476.0 225.0Q519.0 225.0 560.0 231.0Q601.0 237.0 635.0 247.0Q625.0 375.0 580.5 463.0Q536.0 551.0 446.0 551.0Q388.0 551.0 355.5 514.0Q323.0 477.0 310.0 427.0Q297.0 377.0 297.0 338.0Q297.0 273.0 344.0 249.0Q391.0 225.0 476.0 225.0Z" fill="#8B9BC0" />
  <path transform="translate(715.66,102.00) scale(0.004639,-0.004639)" d="M1166.0 199.0V0.0H80.0V159.0L840.0 1256.0H86.0V1456.0H1143.0V1301.0L385.0 199.0Z" fill="#5A6A8F" />
  <path transform="translate(723.79,102.00) scale(0.004639,-0.004639)" d="M1101.0 199.0V0.0H148.0V1456.0H1096.0V1256.0H399.0V848.0H1000.0V652.0H399.0V199.0Z" fill="#5A6A8F" />
  <path transform="translate(731.56,102.00) scale(0.004639,-0.004639)" d="M979.0 0.0 685.0 562.0H399.0V0.0H148.0V1456.0H663.0Q911.0 1456.0 1049.5 1344.0Q1188.0 1232.0 1188.0 1018.0Q1188.0 870.0 1116.0 770.5Q1044.0 671.0 919.0 620.0L1247.0 13.0V0.0ZM663.0 1256.0H399.0V761.0H667.0Q802.0 761.0 870.0 830.5Q938.0 900.0 938.0 1006.0Q938.0 1120.0 871.0 1188.0Q804.0 1256.0 663.0 1256.0Z" fill="#5A6A8F" />
  <path transform="translate(739.94,102.00) scale(0.004639,-0.004639)" d="M1309.0 768.0V688.0Q1309.0 468.0 1233.5 309.5Q1158.0 151.0 1022.5 65.5Q887.0 -20.0 707.0 -20.0Q529.0 -20.0 392.5 65.5Q256.0 151.0 178.5 309.5Q101.0 468.0 101.0 688.0V768.0Q101.0 988.0 178.0 1146.5Q255.0 1305.0 391.0 1390.5Q527.0 1476.0 705.0 1476.0Q885.0 1476.0 1021.0 1390.5Q1157.0 1305.0 1233.0 1146.5Q1309.0 988.0 1309.0 768.0ZM1058.0 688.0V770.0Q1058.0 1013.0 965.0 1142.0Q872.0 1271.0 705.0 1271.0Q540.0 1271.0 446.5 1142.0Q353.0 1013.0 353.0 770.0V688.0Q353.0 444.0 447.5 314.0Q542.0 184.0 707.0 184.0Q875.0 184.0 966.5 314.0Q1058.0 444.0 1058.0 688.0Z" fill="#5A6A8F" />
  <path transform="translate(753.75,102.00) scale(0.004639,-0.004639)" d="M571.0 0.0H148.0V1456.0H580.0Q774.0 1456.0 921.0 1370.5Q1068.0 1285.0 1151.0 1130.0Q1234.0 975.0 1234.0 766.0V689.0Q1234.0 480.0 1151.5 325.0Q1069.0 170.0 920.0 85.0Q771.0 0.0 571.0 0.0ZM580.0 1256.0H399.0V199.0H571.0Q774.0 199.0 878.0 329.5Q982.0 460.0 982.0 689.0V768.0Q982.0 1004.0 878.0 1130.0Q774.0 1256.0 580.0 1256.0Z" fill="#5A6A8F" />
  <path transform="translate(762.35,102.00) scale(0.004639,-0.004639)" d="M1101.0 199.0V0.0H148.0V1456.0H1096.0V1256.0H399.0V848.0H1000.0V652.0H399.0V199.0Z" fill="#5A6A8F" />
  <path transform="translate(770.12,102.00) scale(0.004639,-0.004639)" d="M701.0 543.0H399.0V0.0H148.0V1456.0H701.0Q870.0 1456.0 988.0 1396.5Q1106.0 1337.0 1168.5 1232.5Q1231.0 1128.0 1231.0 994.0Q1231.0 783.0 1092.5 663.0Q954.0 543.0 701.0 543.0ZM701.0 1256.0H399.0V742.0H701.0Q849.0 742.0 914.0 812.5Q979.0 883.0 979.0 992.0Q979.0 1061.0 950.5 1121.5Q922.0 1182.0 861.0 1219.0Q800.0 1256.0 701.0 1256.0Z" fill="#5A6A8F" />
  <path transform="translate(778.58,102.00) scale(0.004639,-0.004639)" d="M914.0 375.0Q914.0 435.0 888.5 478.0Q863.0 521.0 795.5 557.0Q728.0 593.0 601.0 632.0Q463.0 674.0 354.5 731.5Q246.0 789.0 183.0 872.5Q120.0 956.0 120.0 1075.0Q120.0 1193.0 185.5 1283.0Q251.0 1373.0 368.0 1424.5Q485.0 1476.0 639.0 1476.0Q802.0 1476.0 919.0 1416.0Q1036.0 1356.0 1099.5 1255.0Q1163.0 1154.0 1163.0 1032.0H914.0Q914.0 1139.0 845.0 1209.0Q776.0 1279.0 636.0 1279.0Q502.0 1279.0 436.5 1220.0Q371.0 1161.0 371.0 1075.0Q371.0 993.0 448.0 938.5Q525.0 884.0 685.0 837.0Q927.0 766.0 1046.5 659.0Q1166.0 552.0 1166.0 377.0Q1166.0 254.0 1101.5 165.0Q1037.0 76.0 920.5 28.0Q804.0 -20.0 647.0 -20.0Q542.0 -20.0 440.5 8.5Q339.0 37.0 256.0 94.0Q173.0 151.0 124.0 237.5Q75.0 324.0 75.0 440.0H326.0Q326.0 346.0 369.0 288.0Q412.0 230.0 485.0 203.0Q558.0 176.0 647.0 176.0Q779.0 176.0 846.5 231.0Q914.0 286.0 914.0 375.0Z" fill="#5A6A8F" />
  <line x1="600" y1="28" x2="600" y2="76" stroke="#33477E" stroke-width="1" opacity="0.6"/>
  <path transform="translate(437.29,60.00) scale(0.022461,-0.022461)" d="M1040.0 1358.0Q1045.0 1309.0 1049.0 1256.0Q1053.0 1203.0 1053.0 1153.0Q1053.0 1006.0 1014.5 894.0Q976.0 782.0 887.0 719.5Q798.0 657.0 647.0 657.0Q621.0 657.0 580.5 659.0Q540.0 661.0 507.0 667.0Q518.0 542.0 523.5 423.0Q529.0 304.0 529.0 194.0V0.0H235.0V197.0Q235.0 438.0 216.5 630.0Q198.0 822.0 156.0 982.0Q114.0 1142.0 45.0 1284.0L321.0 1382.0Q352.0 1308.0 373.0 1250.0Q394.0 1192.0 425.0 1119.0Q447.0 1067.0 469.5 1034.5Q492.0 1002.0 529.5 987.0Q567.0 972.0 635.0 972.0Q709.0 972.0 747.5 1012.5Q786.0 1053.0 786.0 1119.0Q786.0 1176.0 779.0 1228.5Q772.0 1281.0 764.0 1332.0Z" fill="url(#brandGrad)" />
  <path transform="translate(409.17,86.00) scale(0.007324,-0.007324)" d="M1062.0 0.0Q778.0 0.0 716.0 246.0Q600.0 139.0 451.0 139.0Q297.0 139.0 194.5 222.0Q92.0 305.0 92.0 459.0Q92.0 630.0 233.0 743.0Q374.0 856.0 611.0 928.0L604.0 976.0L800.0 1016.0L890.0 390.0Q901.0 314.0 943.5 271.5Q986.0 229.0 1066.0 229.0H1097.0V0.0ZM670.0 518.0Q670.0 547.0 664.0 581.0L643.0 721.0Q487.0 666.0 395.5 605.0Q304.0 544.0 304.0 470.0Q304.0 415.0 344.0 384.5Q384.0 354.0 451.0 354.0Q505.0 354.0 555.0 373.0Q605.0 392.0 637.5 428.5Q670.0 465.0 670.0 518.0Z" fill="#8B9BC0" />
  <path transform="translate(417.06,86.00) scale(0.007324,-0.007324)" d="M141.0 0.0H-20.0V229.0H141.0Q230.0 229.0 262.5 282.0Q295.0 335.0 295.0 417.0Q295.0 483.0 281.0 560.5Q267.0 638.0 252.0 714.0L464.0 768.0Q482.0 681.0 492.5 598.0Q503.0 515.0 503.0 438.0Q503.0 312.0 469.0 213.0Q435.0 114.0 355.5 57.0Q276.0 0.0 141.0 0.0ZM261.0 1234.0 421.0 1074.0 261.0 914.0 101.0 1074.0Z" fill="#8B9BC0" />
  <path transform="translate(421.41,86.00) scale(0.007324,-0.007324)" d="M146.0 1388.0H359.0V450.0Q359.0 325.0 401.5 277.0Q444.0 229.0 546.0 229.0H571.0V0.0H546.0Q341.0 0.0 243.5 108.0Q146.0 216.0 146.0 440.0Z" fill="#8B9BC0" />
  <path transform="translate(425.45,86.00) scale(0.007324,-0.007324)" d="M71.0 1205.0V1333.0L854.0 1651.0V1523.0ZM274.0 950.0Q367.0 890.0 456.5 826.5Q546.0 763.0 618.5 693.0Q691.0 623.0 734.0 544.0Q777.0 465.0 777.0 372.0Q777.0 164.0 636.0 82.0Q495.0 0.0 224.0 0.0H-20.0V229.0H223.0Q402.0 229.0 484.5 258.5Q567.0 288.0 567.0 376.0Q567.0 427.0 519.5 482.0Q472.0 537.0 398.0 592.5Q324.0 648.0 243.5 702.0Q163.0 756.0 97.0 807.0Q60.0 834.0 41.0 875.5Q22.0 917.0 22.0 960.0Q22.0 1007.0 46.5 1049.0Q71.0 1091.0 122.0 1112.0L864.0 1414.0V1189.0Z" fill="#8B9BC0" />
  <path transform="translate(432.19,86.00) scale(0.007324,-0.007324)" d="M841.0 193.0Q841.0 -123.0 667.0 -300.5Q493.0 -478.0 172.0 -540.0L95.0 -334.0Q314.0 -292.0 451.5 -202.5Q589.0 -113.0 619.0 20.0Q586.0 10.0 546.5 3.5Q507.0 -3.0 475.0 -3.0Q291.0 -3.0 191.5 77.0Q92.0 157.0 92.0 329.0Q92.0 406.0 115.0 484.5Q138.0 563.0 183.5 628.5Q229.0 694.0 295.5 734.5Q362.0 775.0 448.0 775.0Q549.0 775.0 623.0 726.0Q697.0 677.0 745.0 593.5Q793.0 510.0 817.0 406.5Q841.0 303.0 841.0 193.0ZM476.0 225.0Q519.0 225.0 560.0 231.0Q601.0 237.0 635.0 247.0Q625.0 375.0 580.5 463.0Q536.0 551.0 446.0 551.0Q388.0 551.0 355.5 514.0Q323.0 477.0 310.0 427.0Q297.0 377.0 297.0 338.0Q297.0 273.0 344.0 249.0Q391.0 225.0 476.0 225.0Z" fill="#8B9BC0" />
  <path transform="translate(439.01,86.00) scale(0.007324,-0.007324)" d="M337.0 226.0Q501.0 226.0 602.0 267.0Q703.0 308.0 703.0 403.0Q703.0 498.0 591.5 605.0Q480.0 712.0 278.0 817.0L377.0 1019.0Q535.0 940.0 655.0 847.0Q775.0 754.0 842.5 645.5Q910.0 537.0 910.0 410.0Q910.0 199.0 767.5 100.5Q625.0 2.0 352.0 2.0Q280.0 2.0 215.5 8.0Q151.0 14.0 92.0 27.0V255.0Q157.0 242.0 221.0 234.0Q285.0 226.0 337.0 226.0Z" fill="#8B9BC0" />
  <path transform="translate(450.25,86.00) scale(0.007324,-0.007324)" d="M648.0 -496.0Q362.0 -496.0 227.0 -345.0Q92.0 -194.0 92.0 62.0Q92.0 172.0 116.0 289.5Q140.0 407.0 182.0 517.0L377.0 440.0Q346.0 349.0 323.0 248.5Q300.0 148.0 300.0 58.0Q300.0 -99.0 382.5 -184.5Q465.0 -270.0 648.0 -270.0Q823.0 -270.0 900.5 -172.5Q978.0 -75.0 978.0 120.0V1388.0H1191.0V453.0Q1191.0 347.0 1227.0 288.0Q1263.0 229.0 1373.0 229.0H1403.0V0.0H1375.0Q1302.0 0.0 1264.0 15.0Q1226.0 30.0 1187.0 64.0Q1179.0 -208.0 1046.5 -352.0Q914.0 -496.0 648.0 -496.0Z" fill="#8B9BC0" />
  <path transform="translate(460.38,86.00) scale(0.007324,-0.007324)" d="M274.0 950.0Q396.0 870.0 492.5 798.5Q589.0 727.0 660.0 645.5Q731.0 564.0 776.0 455.0Q826.0 335.0 878.0 282.0Q930.0 229.0 1038.0 229.0H1066.0V0.0H1038.0Q923.0 0.0 843.5 40.0Q764.0 80.0 705.0 169.0Q659.0 110.0 600.0 72.5Q541.0 35.0 451.5 17.5Q362.0 0.0 224.0 0.0H-20.0V229.0H223.0Q402.0 229.0 484.5 258.5Q567.0 288.0 567.0 376.0Q567.0 427.0 519.5 482.0Q472.0 537.0 398.0 592.5Q324.0 648.0 243.5 702.0Q163.0 756.0 97.0 807.0Q60.0 835.0 41.0 877.0Q22.0 919.0 22.0 962.0Q22.0 1010.0 46.5 1050.5Q71.0 1091.0 122.0 1112.0L864.0 1414.0V1189.0Z" fill="#8B9BC0" />
  <path transform="translate(468.04,86.00) scale(0.007324,-0.007324)" d="M471.0 1227.0 625.0 1074.0 471.0 919.0 319.0 1074.0ZM137.0 1227.0 291.0 1074.0 137.0 919.0 -16.0 1074.0ZM-20.0 229.0H235.0Q324.0 229.0 356.5 282.0Q389.0 335.0 389.0 417.0Q389.0 483.0 375.0 560.5Q361.0 638.0 346.0 714.0L558.0 768.0Q576.0 681.0 586.5 598.0Q597.0 515.0 597.0 438.0Q597.0 312.0 563.0 213.0Q529.0 114.0 449.5 57.0Q370.0 0.0 235.0 0.0H-20.0Z" fill="#8B9BC0" />
  <path transform="translate(473.09,86.00) scale(0.007324,-0.007324)" d="M841.0 193.0Q841.0 -123.0 667.0 -300.5Q493.0 -478.0 172.0 -540.0L95.0 -334.0Q314.0 -292.0 451.5 -202.5Q589.0 -113.0 619.0 20.0Q586.0 10.0 546.5 3.5Q507.0 -3.0 475.0 -3.0Q291.0 -3.0 191.5 77.0Q92.0 157.0 92.0 329.0Q92.0 406.0 115.0 484.5Q138.0 563.0 183.5 628.5Q229.0 694.0 295.5 734.5Q362.0 775.0 448.0 775.0Q549.0 775.0 623.0 726.0Q697.0 677.0 745.0 593.5Q793.0 510.0 817.0 406.5Q841.0 303.0 841.0 193.0ZM476.0 225.0Q519.0 225.0 560.0 231.0Q601.0 237.0 635.0 247.0Q625.0 375.0 580.5 463.0Q536.0 551.0 446.0 551.0Q388.0 551.0 355.5 514.0Q323.0 477.0 310.0 427.0Q297.0 377.0 297.0 338.0Q297.0 273.0 344.0 249.0Q391.0 225.0 476.0 225.0Z" fill="#8B9BC0" />
  <path transform="translate(479.69,86.00) scale(0.007324,-0.007324)" d="M795.0 0.0Q737.0 0.0 693.5 14.5Q650.0 29.0 624.0 48.0Q604.0 -93.0 537.0 -214.0Q470.0 -335.0 349.5 -420.5Q229.0 -506.0 46.0 -541.0L-30.0 -335.0Q202.0 -285.0 313.0 -168.0Q424.0 -51.0 424.0 139.0Q424.0 227.0 401.0 329.0Q378.0 431.0 345.0 529.0L556.0 599.0L612.0 382.0Q632.0 306.0 673.0 267.5Q714.0 229.0 784.0 229.0H822.0V0.0Z" fill="#8B9BC0" />
  <path transform="translate(485.57,86.00) scale(0.007324,-0.007324)" d="M-20.0 229.0H265.0Q354.0 229.0 386.5 282.0Q419.0 335.0 419.0 417.0Q419.0 483.0 405.0 560.5Q391.0 638.0 376.0 714.0L588.0 768.0Q606.0 681.0 616.5 598.0Q627.0 515.0 627.0 438.0Q627.0 312.0 593.0 213.0Q559.0 114.0 479.5 57.0Q400.0 0.0 265.0 0.0H-20.0ZM412.0 -114.0 558.0 -261.0 412.0 -407.0 266.0 -261.0ZM67.0 -114.0 213.0 -261.0 67.0 -407.0 -80.0 -261.0ZM239.0 -368.0 385.0 -515.0 239.0 -661.0 93.0 -515.0Z" fill="#8B9BC0" />
  <path transform="translate(398.35,102.00) scale(0.004639,-0.004639)" d="M293.0 1456.0 660.0 307.0 1030.0 1456.0H1307.0L785.0 0.0H537.0L17.0 1456.0Z" fill="#5A6A8F" />
  <path transform="translate(406.88,102.00) scale(0.004639,-0.004639)" d="M1060.0 199.0V0.0H148.0V1456.0H399.0V199.0Z" fill="#5A6A8F" />
  <path transform="translate(414.41,102.00) scale(0.004639,-0.004639)" d="M1101.0 199.0V0.0H148.0V1456.0H1096.0V1256.0H399.0V848.0H1000.0V652.0H399.0V199.0Z" fill="#5A6A8F" />
  <path transform="translate(422.18,102.00) scale(0.004639,-0.004639)" d="M914.0 375.0Q914.0 435.0 888.5 478.0Q863.0 521.0 795.5 557.0Q728.0 593.0 601.0 632.0Q463.0 674.0 354.5 731.5Q246.0 789.0 183.0 872.5Q120.0 956.0 120.0 1075.0Q120.0 1193.0 185.5 1283.0Q251.0 1373.0 368.0 1424.5Q485.0 1476.0 639.0 1476.0Q802.0 1476.0 919.0 1416.0Q1036.0 1356.0 1099.5 1255.0Q1163.0 1154.0 1163.0 1032.0H914.0Q914.0 1139.0 845.0 1209.0Q776.0 1279.0 636.0 1279.0Q502.0 1279.0 436.5 1220.0Q371.0 1161.0 371.0 1075.0Q371.0 993.0 448.0 938.5Q525.0 884.0 685.0 837.0Q927.0 766.0 1046.5 659.0Q1166.0 552.0 1166.0 377.0Q1166.0 254.0 1101.5 165.0Q1037.0 76.0 920.5 28.0Q804.0 -20.0 647.0 -20.0Q542.0 -20.0 440.5 8.5Q339.0 37.0 256.0 94.0Q173.0 151.0 124.0 237.5Q75.0 324.0 75.0 440.0H326.0Q326.0 346.0 369.0 288.0Q412.0 230.0 485.0 203.0Q558.0 176.0 647.0 176.0Q779.0 176.0 846.5 231.0Q914.0 286.0 914.0 375.0Z" fill="#5A6A8F" />
  <path transform="translate(430.33,102.00) scale(0.004639,-0.004639)" d="M914.0 375.0Q914.0 435.0 888.5 478.0Q863.0 521.0 795.5 557.0Q728.0 593.0 601.0 632.0Q463.0 674.0 354.5 731.5Q246.0 789.0 183.0 872.5Q120.0 956.0 120.0 1075.0Q120.0 1193.0 185.5 1283.0Q251.0 1373.0 368.0 1424.5Q485.0 1476.0 639.0 1476.0Q802.0 1476.0 919.0 1416.0Q1036.0 1356.0 1099.5 1255.0Q1163.0 1154.0 1163.0 1032.0H914.0Q914.0 1139.0 845.0 1209.0Q776.0 1279.0 636.0 1279.0Q502.0 1279.0 436.5 1220.0Q371.0 1161.0 371.0 1075.0Q371.0 993.0 448.0 938.5Q525.0 884.0 685.0 837.0Q927.0 766.0 1046.5 659.0Q1166.0 552.0 1166.0 377.0Q1166.0 254.0 1101.5 165.0Q1037.0 76.0 920.5 28.0Q804.0 -20.0 647.0 -20.0Q542.0 -20.0 440.5 8.5Q339.0 37.0 256.0 94.0Q173.0 151.0 124.0 237.5Q75.0 324.0 75.0 440.0H326.0Q326.0 346.0 369.0 288.0Q412.0 230.0 485.0 203.0Q558.0 176.0 647.0 176.0Q779.0 176.0 846.5 231.0Q914.0 286.0 914.0 375.0Z" fill="#5A6A8F" />
  <path transform="translate(443.35,102.00) scale(0.004639,-0.004639)" d="M144.0 713.0Q144.0 769.0 181.5 807.5Q219.0 846.0 285.0 846.0Q351.0 846.0 388.5 807.5Q426.0 769.0 426.0 713.0Q426.0 658.0 388.5 620.0Q351.0 582.0 285.0 582.0Q219.0 582.0 181.5 620.0Q144.0 658.0 144.0 713.0Z" fill="#5A6A8F" />
  <path transform="translate(453.12,102.00) scale(0.004639,-0.004639)" d="M1204.0 1456.0V1256.0H747.0V0.0H498.0V1256.0H45.0V1456.0Z" fill="#5A6A8F" />
  <path transform="translate(461.31,102.00) scale(0.004639,-0.004639)" d="M979.0 0.0 685.0 562.0H399.0V0.0H148.0V1456.0H663.0Q911.0 1456.0 1049.5 1344.0Q1188.0 1232.0 1188.0 1018.0Q1188.0 870.0 1116.0 770.5Q1044.0 671.0 919.0 620.0L1247.0 13.0V0.0ZM663.0 1256.0H399.0V761.0H667.0Q802.0 761.0 870.0 830.5Q938.0 900.0 938.0 1006.0Q938.0 1120.0 871.0 1188.0Q804.0 1256.0 663.0 1256.0Z" fill="#5A6A8F" />
  <path transform="translate(469.69,102.00) scale(0.004639,-0.004639)" d="M1309.0 768.0V688.0Q1309.0 468.0 1233.5 309.5Q1158.0 151.0 1022.5 65.5Q887.0 -20.0 707.0 -20.0Q529.0 -20.0 392.5 65.5Q256.0 151.0 178.5 309.5Q101.0 468.0 101.0 688.0V768.0Q101.0 988.0 178.0 1146.5Q255.0 1305.0 391.0 1390.5Q527.0 1476.0 705.0 1476.0Q885.0 1476.0 1021.0 1390.5Q1157.0 1305.0 1233.0 1146.5Q1309.0 988.0 1309.0 768.0ZM1058.0 688.0V770.0Q1058.0 1013.0 965.0 1142.0Q872.0 1271.0 705.0 1271.0Q540.0 1271.0 446.5 1142.0Q353.0 1013.0 353.0 770.0V688.0Q353.0 444.0 447.5 314.0Q542.0 184.0 707.0 184.0Q875.0 184.0 966.5 314.0Q1058.0 444.0 1058.0 688.0Z" fill="#5A6A8F" />
  <path transform="translate(478.64,102.00) scale(0.004639,-0.004639)" d="M747.0 437.0V1456.0H997.0V437.0Q997.0 292.0 935.0 190.0Q873.0 88.0 766.0 34.0Q659.0 -20.0 523.0 -20.0Q384.0 -20.0 276.5 27.0Q169.0 74.0 108.0 171.0Q47.0 268.0 47.0 417.0H299.0Q299.0 289.0 360.0 234.0Q421.0 179.0 523.0 179.0Q621.0 179.0 684.0 245.0Q747.0 311.0 747.0 437.0Z" fill="#5A6A8F" />
  <path transform="translate(486.21,102.00) scale(0.004639,-0.004639)" d="M1079.0 0.0 961.0 341.0H398.0L280.0 0.0H17.0L565.0 1456.0H793.0L1343.0 0.0ZM466.0 540.0H892.0L679.0 1158.0Z" fill="#5A6A8F" />
  <path transform="translate(494.91,102.00) scale(0.004639,-0.004639)" d="M1303.0 1456.0V0.0H1052.0L399.0 1043.0V0.0H148.0V1456.0H399.0L1054.0 411.0V1456.0Z" fill="#5A6A8F" />
  <line x1="300" y1="28" x2="300" y2="76" stroke="#33477E" stroke-width="1" opacity="0.6"/>
  <path transform="translate(109.50,60.00) scale(0.022461,-0.022461)" d="M752.0 1370.0 996.0 1259.0 357.0 -24.0 112.0 86.0ZM111.0 1121.0Q111.0 1201.0 168.5 1259.5Q226.0 1318.0 307.0 1318.0Q388.0 1318.0 445.5 1259.5Q503.0 1201.0 503.0 1121.0Q503.0 1041.0 445.0 983.5Q387.0 926.0 307.0 926.0Q227.0 926.0 169.0 982.5Q111.0 1039.0 111.0 1121.0ZM606.0 226.0Q606.0 306.0 663.5 364.5Q721.0 423.0 802.0 423.0Q883.0 423.0 940.0 364.5Q997.0 306.0 997.0 226.0Q997.0 146.0 939.5 88.5Q882.0 31.0 802.0 31.0Q722.0 31.0 664.0 87.5Q606.0 144.0 606.0 226.0Z" fill="url(#brandGrad)" />
  <path transform="translate(134.37,60.00) scale(0.022461,-0.022461)" d="M107.0 478.0Q107.0 577.0 154.5 657.5Q202.0 738.0 283.0 785.5Q364.0 833.0 462.0 833.0Q561.0 833.0 641.5 785.5Q722.0 738.0 769.5 657.5Q817.0 577.0 817.0 478.0Q817.0 380.0 769.5 299.0Q722.0 218.0 641.5 170.5Q561.0 123.0 462.0 123.0Q364.0 123.0 283.0 170.5Q202.0 218.0 154.5 299.0Q107.0 380.0 107.0 478.0ZM338.0 478.0Q338.0 426.0 374.0 394.5Q410.0 363.0 462.0 363.0Q515.0 363.0 550.5 394.5Q586.0 426.0 586.0 478.0Q586.0 531.0 550.5 562.0Q515.0 593.0 462.0 593.0Q410.0 593.0 374.0 562.0Q338.0 531.0 338.0 478.0Z" fill="url(#brandGrad)" />
  <path transform="translate(155.12,60.00) scale(0.022461,-0.022461)" d="M107.0 478.0Q107.0 577.0 154.5 657.5Q202.0 738.0 283.0 785.5Q364.0 833.0 462.0 833.0Q561.0 833.0 641.5 785.5Q722.0 738.0 769.5 657.5Q817.0 577.0 817.0 478.0Q817.0 380.0 769.5 299.0Q722.0 218.0 641.5 170.5Q561.0 123.0 462.0 123.0Q364.0 123.0 283.0 170.5Q202.0 218.0 154.5 299.0Q107.0 380.0 107.0 478.0ZM338.0 478.0Q338.0 426.0 374.0 394.5Q410.0 363.0 462.0 363.0Q515.0 363.0 550.5 394.5Q586.0 426.0 586.0 478.0Q586.0 531.0 550.5 562.0Q515.0 593.0 462.0 593.0Q410.0 593.0 374.0 562.0Q338.0 531.0 338.0 478.0Z" fill="url(#brandGrad)" />
  <path transform="translate(175.88,60.00) scale(0.022461,-0.022461)" d="M530.0 0.0H236.0V197.0Q236.0 438.0 217.0 630.0Q198.0 822.0 156.0 982.0Q114.0 1142.0 45.0 1284.0L320.0 1384.0Q434.0 1130.0 482.0 841.5Q530.0 553.0 530.0 194.0Z" fill="url(#brandGrad)" />
  <path transform="translate(94.31,86.00) scale(0.007324,-0.007324)" d="M1062.0 0.0Q778.0 0.0 716.0 246.0Q600.0 139.0 451.0 139.0Q297.0 139.0 194.5 222.0Q92.0 305.0 92.0 459.0Q92.0 630.0 233.0 743.0Q374.0 856.0 611.0 928.0L604.0 976.0L800.0 1016.0L890.0 390.0Q901.0 314.0 943.5 271.5Q986.0 229.0 1066.0 229.0H1097.0V0.0ZM670.0 518.0Q670.0 547.0 664.0 581.0L643.0 721.0Q487.0 666.0 395.5 605.0Q304.0 544.0 304.0 470.0Q304.0 415.0 344.0 384.5Q384.0 354.0 451.0 354.0Q505.0 354.0 555.0 373.0Q605.0 392.0 637.5 428.5Q670.0 465.0 670.0 518.0Z" fill="#8B9BC0" />
  <path transform="translate(102.19,86.00) scale(0.007324,-0.007324)" d="M891.0 1364.0 1037.0 1218.0 891.0 1072.0 745.0 1218.0ZM1064.0 1110.0 1210.0 964.0 1064.0 818.0 918.0 964.0ZM719.0 1110.0 865.0 964.0 719.0 818.0 572.0 964.0ZM1201.0 0.0Q1107.0 0.0 1047.0 38.5Q987.0 77.0 948.0 142.0Q894.0 73.0 827.0 36.5Q760.0 0.0 677.0 0.0Q568.0 0.0 503.0 37.0Q438.0 74.0 398.0 141.0Q347.0 74.0 273.0 37.0Q199.0 0.0 72.0 0.0H-20.0V229.0H74.0Q194.0 229.0 247.5 267.5Q301.0 306.0 301.0 422.0Q301.0 447.0 298.0 497.0Q295.0 547.0 290.0 607.0L494.0 632.0L512.0 396.0Q517.0 320.0 558.0 274.5Q599.0 229.0 679.0 229.0Q775.0 229.0 808.5 276.0Q842.0 323.0 842.0 422.0Q842.0 446.0 839.0 496.5Q836.0 547.0 831.0 607.0L1035.0 632.0L1053.0 396.0Q1058.0 323.0 1090.5 276.0Q1123.0 229.0 1199.0 229.0Q1268.0 229.0 1298.5 278.5Q1329.0 328.0 1329.0 422.0Q1329.0 458.0 1326.0 509.5Q1323.0 561.0 1318.0 624.0L1522.0 649.0L1540.0 396.0Q1550.0 229.0 1719.0 229.0H1749.0V0.0H1721.0Q1515.0 0.0 1449.0 139.0Q1407.0 75.0 1350.0 37.5Q1293.0 0.0 1201.0 0.0Z" fill="#8B9BC0" />
  <path transform="translate(114.86,86.00) scale(0.007324,-0.007324)" d="M-22.0 229.0H129.0Q248.0 229.0 297.0 277.5Q346.0 326.0 346.0 436.0Q346.0 489.0 343.5 537.5Q341.0 586.0 337.0 633.0L540.0 658.0L558.0 401.0Q568.0 229.0 742.0 229.0H763.0V0.0H740.0Q634.0 0.0 565.0 38.0Q496.0 76.0 453.0 143.0Q396.0 72.0 310.0 36.0Q224.0 0.0 129.0 0.0H-22.0ZM340.0 -145.0 494.0 -298.0 340.0 -453.0 188.0 -298.0ZM6.0 -145.0 160.0 -298.0 6.0 -453.0 -147.0 -298.0Z" fill="#8B9BC0" />
  <path transform="translate(120.30,86.00) scale(0.007324,-0.007324)" d="M24.0 0.0H-20.0V229.0H19.0Q78.0 229.0 121.0 267.5Q164.0 306.0 200.5 366.5Q237.0 427.0 274.5 495.0Q312.0 563.0 359.0 623.5Q406.0 684.0 470.5 722.5Q535.0 761.0 626.0 761.0Q788.0 761.0 882.5 662.5Q977.0 564.0 1005.0 419.0Q1025.0 320.0 1069.0 274.5Q1113.0 229.0 1168.0 229.0H1194.0V0.0H1167.0Q1103.0 0.0 1041.5 27.5Q980.0 55.0 942.0 106.0Q896.0 44.0 834.5 10.5Q773.0 -23.0 680.0 -23.0Q578.0 -23.0 491.0 21.0Q404.0 65.0 315.0 143.0Q254.0 78.0 194.5 39.0Q135.0 0.0 24.0 0.0ZM632.0 541.0Q586.0 541.0 548.5 510.0Q511.0 479.0 481.5 432.5Q452.0 386.0 430.0 339.0Q462.0 307.0 493.0 283.5Q524.0 260.0 552.0 243.0Q624.0 201.0 680.0 201.0Q745.0 201.0 775.5 239.0Q806.0 277.0 806.0 340.0Q806.0 426.0 760.0 483.5Q714.0 541.0 632.0 541.0Z" fill="#8B9BC0" />
  <path transform="translate(128.90,86.00) scale(0.007324,-0.007324)" d="M509.0 84.0Q421.0 52.0 305.0 26.0Q189.0 0.0 79.0 0.0H-20.0V229.0H66.0Q117.0 229.0 158.5 231.0Q200.0 233.0 247.0 238.0Q195.0 287.0 169.5 353.5Q144.0 420.0 144.0 485.0Q144.0 581.0 190.5 659.0Q237.0 737.0 319.5 784.0Q402.0 831.0 512.0 832.0L605.0 1011.0Q849.0 894.0 1013.0 797.5Q1177.0 701.0 1260.0 605.5Q1343.0 510.0 1343.0 393.0Q1343.0 205.0 1228.0 107.5Q1113.0 10.0 922.0 10.0Q853.0 10.0 776.0 21.5Q699.0 33.0 629.0 50.5Q559.0 68.0 509.0 84.0ZM756.0 234.0Q856.0 219.0 929.0 219.0Q1023.0 219.0 1080.0 258.0Q1137.0 297.0 1137.0 388.0Q1137.0 492.0 830.0 662.0Q877.0 588.0 877.0 505.0Q877.0 418.0 845.0 352.5Q813.0 287.0 756.0 234.0ZM350.0 487.0Q350.0 429.0 399.5 376.0Q449.0 323.0 528.0 294.0Q596.0 319.0 645.0 367.5Q694.0 416.0 694.0 477.0Q694.0 552.0 645.5 598.5Q597.0 645.0 529.0 645.0Q453.0 645.0 401.5 600.5Q350.0 556.0 350.0 487.0Z" fill="#8B9BC0" />
  <path transform="translate(143.30,86.00) scale(0.007324,-0.007324)" d="M700.0 -505.0Q484.0 -505.0 350.5 -424.5Q217.0 -344.0 155.0 -207.5Q93.0 -71.0 93.0 95.0Q93.0 206.0 116.5 324.5Q140.0 443.0 183.0 558.0L379.0 481.0Q347.0 384.0 324.5 285.0Q302.0 186.0 302.0 96.0Q302.0 -6.0 338.5 -91.0Q375.0 -176.0 462.0 -227.0Q549.0 -278.0 700.0 -278.0Q846.0 -278.0 953.0 -243.0Q1060.0 -208.0 1118.5 -155.5Q1177.0 -103.0 1177.0 -52.0Q1177.0 -28.0 1163.0 -9.0Q1149.0 10.0 1112.0 10.0H950.0Q822.0 10.0 741.5 73.5Q661.0 137.0 661.0 306.0Q661.0 441.0 717.5 557.0Q774.0 673.0 878.0 744.0Q982.0 815.0 1123.0 815.0Q1185.0 815.0 1249.5 797.0Q1314.0 779.0 1373.0 738.0L1300.0 541.0Q1254.0 565.0 1210.5 575.5Q1167.0 586.0 1124.0 586.0Q1005.0 586.0 938.5 505.0Q872.0 424.0 872.0 306.0Q872.0 268.0 890.5 253.0Q909.0 238.0 952.0 238.0H1111.0Q1263.0 238.0 1319.5 161.5Q1376.0 85.0 1376.0 -33.0Q1376.0 -158.0 1297.5 -266.0Q1219.0 -374.0 1068.5 -439.5Q918.0 -505.0 700.0 -505.0Z" fill="#8B9BC0" />
  <path transform="translate(154.01,86.00) scale(0.007324,-0.007324)" d="M359.0 1388.0V1.0H146.0V1388.0Z" fill="#8B9BC0" />
  <path transform="translate(156.69,86.00) scale(0.007324,-0.007324)" d="M795.0 0.0Q737.0 0.0 693.5 14.5Q650.0 29.0 624.0 48.0Q604.0 -93.0 537.0 -214.0Q470.0 -335.0 349.5 -420.5Q229.0 -506.0 46.0 -541.0L-30.0 -335.0Q202.0 -285.0 313.0 -168.0Q424.0 -51.0 424.0 139.0Q424.0 227.0 401.0 329.0Q378.0 431.0 345.0 529.0L556.0 599.0L612.0 382.0Q632.0 306.0 673.0 267.5Q714.0 229.0 784.0 229.0H822.0V0.0Z" fill="#8B9BC0" />
  <path transform="translate(162.56,86.00) scale(0.007324,-0.007324)" d="M161.0 0.0H-21.0V229.0H161.0Q250.0 229.0 282.5 282.0Q315.0 335.0 315.0 417.0Q315.0 483.0 301.0 560.5Q287.0 638.0 272.0 714.0L484.0 768.0Q502.0 681.0 512.5 598.0Q523.0 515.0 523.0 438.0Q523.0 312.0 489.0 213.0Q455.0 114.0 375.5 57.0Q296.0 0.0 161.0 0.0ZM185.0 -138.0 345.0 -298.0 185.0 -458.0 25.0 -298.0Z" fill="#8B9BC0" />
  <path transform="translate(170.96,86.00) scale(0.007324,-0.007324)" d="M687.0 890.0 847.0 730.0 687.0 570.0 527.0 730.0ZM700.0 -216.0Q857.0 -216.0 945.0 -165.0Q1033.0 -114.0 1069.0 -29.5Q1105.0 55.0 1105.0 155.0Q1105.0 269.0 1072.0 384.5Q1039.0 500.0 1004.0 587.0L1217.0 670.0Q1268.0 532.0 1292.0 408.0Q1316.0 284.0 1316.0 165.0Q1316.0 -17.0 1249.0 -153.5Q1182.0 -290.0 1045.5 -366.0Q909.0 -442.0 700.0 -442.0Q484.0 -442.0 350.5 -361.5Q217.0 -281.0 155.0 -145.0Q93.0 -9.0 93.0 157.0Q93.0 269.0 116.5 387.5Q140.0 506.0 183.0 621.0L379.0 544.0Q347.0 446.0 324.5 347.0Q302.0 248.0 302.0 159.0Q302.0 56.0 338.5 -29.0Q375.0 -114.0 462.0 -165.0Q549.0 -216.0 700.0 -216.0Z" fill="#8B9BC0" />
  <path transform="translate(181.27,86.00) scale(0.007324,-0.007324)" d="M146.0 1388.0H359.0V450.0Q359.0 325.0 401.5 277.0Q444.0 229.0 546.0 229.0H571.0V0.0H546.0Q341.0 0.0 243.5 108.0Q146.0 216.0 146.0 440.0Z" fill="#8B9BC0" />
  <path transform="translate(185.31,86.00) scale(0.007324,-0.007324)" d="M71.0 1205.0V1333.0L854.0 1651.0V1523.0ZM274.0 950.0Q396.0 870.0 492.5 798.5Q589.0 727.0 660.0 645.5Q731.0 564.0 776.0 455.0Q826.0 335.0 878.0 282.0Q930.0 229.0 1038.0 229.0H1066.0V0.0H1038.0Q923.0 0.0 843.5 40.0Q764.0 80.0 705.0 169.0Q659.0 110.0 600.0 72.5Q541.0 35.0 451.5 17.5Q362.0 0.0 224.0 0.0H-20.0V229.0H223.0Q402.0 229.0 484.5 258.5Q567.0 288.0 567.0 376.0Q567.0 427.0 519.5 482.0Q472.0 537.0 398.0 592.5Q324.0 648.0 243.5 702.0Q163.0 756.0 97.0 807.0Q60.0 835.0 41.0 877.0Q22.0 919.0 22.0 962.0Q22.0 1010.0 46.5 1050.5Q71.0 1091.0 122.0 1112.0L864.0 1414.0V1189.0Z" fill="#8B9BC0" />
  <path transform="translate(192.97,86.00) scale(0.007324,-0.007324)" d="M195.0 0.0H-22.0V229.0H195.0Q284.0 229.0 316.5 282.0Q349.0 335.0 349.0 417.0Q349.0 483.0 335.0 560.5Q321.0 638.0 306.0 714.0L518.0 768.0Q536.0 681.0 546.5 598.0Q557.0 515.0 557.0 438.0Q557.0 312.0 523.0 213.0Q489.0 114.0 409.5 57.0Q330.0 0.0 195.0 0.0ZM340.0 -145.0 494.0 -298.0 340.0 -453.0 188.0 -298.0ZM6.0 -145.0 160.0 -298.0 6.0 -453.0 -147.0 -298.0Z" fill="#8B9BC0" />
  <path transform="translate(197.72,86.00) scale(0.007324,-0.007324)" d="M359.0 1388.0V1.0H146.0V1388.0Z" fill="#8B9BC0" />
  <path transform="translate(200.40,86.00) scale(0.007324,-0.007324)" d="M47.0 -541.0 -30.0 -335.0Q202.0 -285.0 313.0 -168.0Q424.0 -51.0 424.0 139.0Q424.0 227.0 401.0 329.0Q378.0 431.0 345.0 529.0L556.0 599.0Q594.0 494.0 613.0 382.5Q632.0 271.0 632.0 167.0Q632.0 -111.0 482.5 -298.0Q333.0 -485.0 47.0 -541.0Z" fill="#8B9BC0" />
  <path transform="translate(104.29,102.00) scale(0.004639,-0.004639)" d="M993.0 819.0V620.0H399.0V0.0H148.0V1456.0H1076.0V1256.0H399.0V819.0Z" fill="#5A6A8F" />
  <path transform="translate(111.92,102.00) scale(0.004639,-0.004639)" d="M979.0 0.0 685.0 562.0H399.0V0.0H148.0V1456.0H663.0Q911.0 1456.0 1049.5 1344.0Q1188.0 1232.0 1188.0 1018.0Q1188.0 870.0 1116.0 770.5Q1044.0 671.0 919.0 620.0L1247.0 13.0V0.0ZM663.0 1256.0H399.0V761.0H667.0Q802.0 761.0 870.0 830.5Q938.0 900.0 938.0 1006.0Q938.0 1120.0 871.0 1188.0Q804.0 1256.0 663.0 1256.0Z" fill="#5A6A8F" />
  <path transform="translate(120.30,102.00) scale(0.004639,-0.004639)" d="M1101.0 199.0V0.0H148.0V1456.0H1096.0V1256.0H399.0V848.0H1000.0V652.0H399.0V199.0Z" fill="#5A6A8F" />
  <path transform="translate(128.07,102.00) scale(0.004639,-0.004639)" d="M1101.0 199.0V0.0H148.0V1456.0H1096.0V1256.0H399.0V848.0H1000.0V652.0H399.0V199.0Z" fill="#5A6A8F" />
  <path transform="translate(140.71,102.00) scale(0.004639,-0.004639)" d="M993.0 819.0V620.0H399.0V0.0H148.0V1456.0H1076.0V1256.0H399.0V819.0Z" fill="#5A6A8F" />
  <path transform="translate(148.34,102.00) scale(0.004639,-0.004639)" d="M1309.0 768.0V688.0Q1309.0 468.0 1233.5 309.5Q1158.0 151.0 1022.5 65.5Q887.0 -20.0 707.0 -20.0Q529.0 -20.0 392.5 65.5Q256.0 151.0 178.5 309.5Q101.0 468.0 101.0 688.0V768.0Q101.0 988.0 178.0 1146.5Q255.0 1305.0 391.0 1390.5Q527.0 1476.0 705.0 1476.0Q885.0 1476.0 1021.0 1390.5Q1157.0 1305.0 1233.0 1146.5Q1309.0 988.0 1309.0 768.0ZM1058.0 688.0V770.0Q1058.0 1013.0 965.0 1142.0Q872.0 1271.0 705.0 1271.0Q540.0 1271.0 446.5 1142.0Q353.0 1013.0 353.0 770.0V688.0Q353.0 444.0 447.5 314.0Q542.0 184.0 707.0 184.0Q875.0 184.0 966.5 314.0Q1058.0 444.0 1058.0 688.0Z" fill="#5A6A8F" />
  <path transform="translate(157.28,102.00) scale(0.004639,-0.004639)" d="M979.0 0.0 685.0 562.0H399.0V0.0H148.0V1456.0H663.0Q911.0 1456.0 1049.5 1344.0Q1188.0 1232.0 1188.0 1018.0Q1188.0 870.0 1116.0 770.5Q1044.0 671.0 919.0 620.0L1247.0 13.0V0.0ZM663.0 1256.0H399.0V761.0H667.0Q802.0 761.0 870.0 830.5Q938.0 900.0 938.0 1006.0Q938.0 1120.0 871.0 1188.0Q804.0 1256.0 663.0 1256.0Z" fill="#5A6A8F" />
  <path transform="translate(165.66,102.00) scale(0.004639,-0.004639)" d="M1101.0 199.0V0.0H148.0V1456.0H1096.0V1256.0H399.0V848.0H1000.0V652.0H399.0V199.0Z" fill="#5A6A8F" />
  <path transform="translate(173.43,102.00) scale(0.004639,-0.004639)" d="M293.0 1456.0 660.0 307.0 1030.0 1456.0H1307.0L785.0 0.0H537.0L17.0 1456.0Z" fill="#5A6A8F" />
  <path transform="translate(181.96,102.00) scale(0.004639,-0.004639)" d="M1101.0 199.0V0.0H148.0V1456.0H1096.0V1256.0H399.0V848.0H1000.0V652.0H399.0V199.0Z" fill="#5A6A8F" />
  <path transform="translate(189.73,102.00) scale(0.004639,-0.004639)" d="M979.0 0.0 685.0 562.0H399.0V0.0H148.0V1456.0H663.0Q911.0 1456.0 1049.5 1344.0Q1188.0 1232.0 1188.0 1018.0Q1188.0 870.0 1116.0 770.5Q1044.0 671.0 919.0 620.0L1247.0 13.0V0.0ZM663.0 1256.0H399.0V761.0H667.0Q802.0 761.0 870.0 830.5Q938.0 900.0 938.0 1006.0Q938.0 1120.0 871.0 1188.0Q804.0 1256.0 663.0 1256.0Z" fill="#5A6A8F" />
</svg>
